<svg width="500" height="120" viewBox="0 0 500 120" fill="none" xmlns="http://www.w3.org/2000/svg">
<g clip-path="url(#clip0_26_105)">
<path d="M140.161 98.4132C131.321 98.4132 124.191 95.8232 118.771 90.6532C113.351 85.4832 110.641 78.6632 110.641 70.2032V34.0032H127.581V68.2832C127.581 72.7432 128.691 76.2232 130.921 78.7332C133.151 81.2432 136.231 82.5032 140.161 82.5032C144.091 82.5032 147.151 81.2432 149.341 78.7032C151.531 76.1732 152.631 72.6932 152.631 68.2832V34.0032H169.571V70.2032C169.571 78.6632 166.891 85.4832 161.521 90.6532C156.161 95.8332 149.041 98.4132 140.161 98.4132Z" fill="#3B1A69"/>
<path d="M208.27 33.6533H213.82L206.51 49.6333C201.75 49.6333 198.34 50.7533 196.28 53.0033C194.22 55.2533 193.19 58.9433 193.19 64.0833V96.6633H176.25V34.0033H187.07L190.07 41.7133C194.38 36.3533 200.44 33.6633 208.26 33.6633L208.27 33.6533Z" fill="#3B1A69"/>
<path d="M340.46 33.9931H351.68V119.263H334.74V93.2531C329.6 96.7631 323.84 98.5231 317.46 98.5231C311.08 98.5231 305.67 97.0831 300.66 94.2131C295.65 91.3431 291.74 87.3731 288.9 82.3131C286.07 77.2531 284.65 71.5831 284.65 65.3131C284.65 59.0431 286.06 53.4331 288.87 48.3731C291.68 43.3131 295.59 39.3531 300.6 36.5031C305.6 33.6531 311.22 32.2231 317.46 32.2231C325.24 32.2231 331.94 34.7131 337.57 39.7031L340.46 33.9831V33.9931ZM306.66 77.6231C309.89 80.8731 313.96 82.4931 318.87 82.4931C323.78 82.4931 327.85 80.8631 331.08 77.5931C334.31 74.3231 335.92 70.2331 335.92 65.3231C335.92 60.4131 334.31 56.3231 331.08 53.0531C327.85 49.7831 323.78 48.1531 318.87 48.1531C313.96 48.1531 309.89 49.7731 306.66 53.0231C303.43 56.2731 301.82 60.3731 301.82 65.3131C301.82 70.2531 303.43 74.3631 306.66 77.6031V77.6231Z" fill="#3B1A69"/>
<path d="M414.169 33.9931H425.389V119.263H408.449V93.2531C403.309 96.7631 397.549 98.5231 391.169 98.5231C384.789 98.5231 379.379 97.0831 374.369 94.2131C369.359 91.3431 365.449 87.3731 362.609 82.3131C359.779 77.2531 358.359 71.5831 358.359 65.3131C358.359 59.0431 359.769 53.4331 362.579 48.3731C365.389 43.3131 369.299 39.3531 374.309 36.5031C379.309 33.6531 384.929 32.2231 391.169 32.2231C398.949 32.2231 405.649 34.7131 411.279 39.7031L414.169 33.9831V33.9931ZM380.369 77.6231C383.599 80.8731 387.669 82.4931 392.579 82.4931C397.489 82.4931 401.559 80.8631 404.789 77.5931C408.019 74.3231 409.629 70.2331 409.629 65.3231C409.629 60.4131 408.019 56.3231 404.789 53.0531C401.559 49.7831 397.489 48.1531 392.579 48.1531C387.669 48.1531 383.599 49.7731 380.369 53.0231C377.139 56.2731 375.529 60.3731 375.529 65.3131C375.529 70.2531 377.139 74.3631 380.369 77.6031V77.6231Z" fill="#3B1A69"/>
<path d="M487.31 33.8731H500V96.5331H486.69L485.22 90.9231C479.52 95.9131 472.76 98.4031 464.94 98.4031C458.74 98.4031 453.14 96.9631 448.11 94.0931C443.09 91.2231 439.16 87.2431 436.33 82.1631C433.5 77.0831 432.08 71.4231 432.08 65.1931C432.08 58.9631 433.5 53.3831 436.33 48.3331C439.16 43.2931 443.09 39.3431 448.11 36.4931C453.13 33.6431 458.74 32.2131 464.94 32.2131C472.91 32.2131 479.76 34.7631 485.51 39.8631L487.32 33.8531L487.31 33.8731ZM454.08 77.4731C457.31 80.7431 461.38 82.3731 466.29 82.3731C471.2 82.3731 475.27 80.7531 478.5 77.5031C481.73 74.2531 483.34 70.1531 483.34 65.2031C483.34 60.2531 481.73 56.1531 478.5 52.9131C475.27 49.6631 471.2 48.0431 466.29 48.0431C461.38 48.0431 457.31 49.6731 454.08 52.9431C450.85 56.2131 449.24 60.3031 449.24 65.2131C449.24 70.1231 450.85 74.2131 454.08 77.4831V77.4731Z" fill="#3B1A69"/>
<path d="M103.96 62.1232C103.96 47.3132 93.34 34.9932 79.3 32.3432C77.49 31.9732 75.61 31.7732 73.68 31.7732C69.34 31.7732 65.24 32.7732 61.59 34.5532C61.14 34.7532 60.69 34.9732 60.25 35.2032C57.3 36.7532 54.81 38.7832 52.77 41.3032V41.3232C52.5 41.6332 52.24 41.9432 51.99 42.2632C46.92 35.8732 39.09 31.7632 30.3 31.7632C23.87 31.7632 17.96 33.9632 13.27 37.6332L11.77 33.9732H0V96.6332H16.94V59.4232C16.94 52.0832 22.98 46.1432 30.31 46.1432C37.11 46.1432 42.72 51.2632 43.5 57.8532C43.56 58.5832 43.6 59.3432 43.6 60.1432V96.6332H60.36V62.7532C60.36 61.7632 60.38 60.5732 60.4 59.4232C60.4 52.0832 66.35 46.1432 73.68 46.1432C81.01 46.1432 86.53 51.6532 86.95 58.6132C86.95 58.8732 86.97 59.1332 86.98 59.4232C86.98 59.6532 87 59.8932 87 60.1432V96.6332H103.94V62.7332C103.94 62.5232 103.95 62.3232 103.95 62.1132L103.96 62.1232Z" fill="#3B1A69"/>
<path d="M265.269 33.8734H277.959V96.5334H264.649L263.179 90.9234C257.479 95.9134 250.719 98.4034 242.899 98.4034C236.699 98.4034 231.099 96.9634 226.069 94.0934C221.049 91.2234 217.119 87.2434 214.289 82.1634C211.459 77.0834 210.039 71.4234 210.039 65.1934C210.039 58.9634 211.459 53.3834 214.289 48.3334C217.119 43.2934 221.049 39.3434 226.069 36.4934C231.089 33.6434 236.699 32.2134 242.899 32.2134C250.869 32.2134 257.719 34.7634 263.469 39.8634L265.279 33.8534L265.269 33.8734ZM232.039 77.4734C235.269 80.7434 239.339 82.3734 244.249 82.3734C249.159 82.3734 253.229 80.7534 256.459 77.5034C259.689 74.2534 261.299 70.1534 261.299 65.2034C261.299 60.2534 259.689 56.1534 256.459 52.9134C253.229 49.6634 249.159 48.0434 244.249 48.0434C239.339 48.0434 235.269 49.6734 232.039 52.9434C228.809 56.2134 227.199 60.3034 227.199 65.2134C227.199 70.1234 228.809 74.2134 232.039 77.4834V77.4734Z" fill="#3B1A69"/>
<path d="M256.145 0.718911L244.436 12.4286C243.85 13.0144 243.85 13.9641 244.436 14.5499L256.145 26.2596C256.731 26.8454 257.681 26.8454 258.267 26.2596L269.976 14.5499C270.562 13.9641 270.562 13.0144 269.976 12.4286L258.267 0.718911C257.681 0.133125 256.731 0.133125 256.145 0.718911Z" fill="#D95936"/>
<path d="M229.733 0.720609L218.024 12.4303C217.438 13.0161 217.438 13.9658 218.024 14.5516L229.733 26.2613C230.319 26.8471 231.269 26.8471 231.855 26.2613L243.564 14.5516C244.15 13.9658 244.15 13.0161 243.564 12.4303L231.855 0.720609C231.269 0.134823 230.319 0.134824 229.733 0.720609Z" fill="#D95936"/>
</g>
<defs>
<clipPath id="clip0_26_105">
<rect width="500" height="118.98" fill="white" transform="translate(0 0.283203)"/>
</clipPath>
</defs>
</svg>
